<svg xmlns="http://www.w3.org/2000/svg" width="692.281" height="689.157" viewBox="0 0 692.281 689.157">
  <metadata><?xpacket begin="﻿" id="W5M0MpCehiHzreSzNTczkc9d"?>
<x:xmpmeta xmlns:x="adobe:ns:meta/" x:xmptk="Adobe XMP Core 6.0-c002 79.164460, 2020/05/12-16:04:17        ">
   <rdf:RDF xmlns:rdf="http://www.w3.org/1999/02/22-rdf-syntax-ns#">
      <rdf:Description rdf:about=""
            xmlns:xmp="http://ns.adobe.com/xap/1.0/">
         <xmp:CreatorTool>Adobe Photoshop 21.2 (Windows)</xmp:CreatorTool>
      </rdf:Description>
   </rdf:RDF>
</x:xmpmeta>
                                                                                                    
                                                                                                    
                                                                                                    
                                                                                                    
                                                                                                    
                                                                                                    
                                                                                                    
                                                                                                    
                                                                                                    
                                                                                                    
                                                                                                    
                                                                                                    
                                                                                                    
                                                                                                    
                                                                                                    
                                                                                                    
                                                                                                    
                                                                                                    
                                                                                                    
                                                                                                    
                           
<?xpacket end="w"?></metadata>
<defs>
    <style>
      .cls-1 {
        fill: #bf8219;
        fill-rule: evenodd;
      }
    </style>
  </defs>
  <path id="_" data-name="®" class="cls-1" d="M610.747,418.094l-0.151.387,0.151,0.386h-0.3L560.721,546.105s-18.455-49.125-47.846-127.356h-0.2l0.1-.267c-0.034-.091-0.066-0.178-0.1-0.268h0.2l45.871-122.1V158.526h3.888V295.751c5.553,14.21,22.9,58.6,47.811,122.344h0.3ZM550.48,575.566l-0.151.387,0.151,0.386h-0.3L500.454,703.577S482,654.452,452.608,576.221h-0.2l0.1-.267c-0.034-.091-0.066-0.178-0.1-0.268h0.2l45.871-122.1V158.526h3.888v294.7c5.553,14.209,22.9,58.6,47.811,122.343h0.3Zm-60.569-156.7L440.187,546.105s-18.455-49.125-47.846-127.356h-0.2l0.1-.267-0.1-.268h0.2c23.773-63.279,40.386-107.5,45.871-122.1V158.526H442.1V295.751c5.553,14.21,22.9,58.6,47.811,122.344h0.3c-0.051.131-.1,0.256-0.151,0.387,0.05,0.13.1,0.256,0.151,0.386h-0.3ZM240.9,844.619a11.6,11.6,0,0,0,0-15.6A11.169,11.169,0,0,0,225.554,829a11.679,11.679,0,0,0,0,15.63A11.169,11.169,0,0,0,240.9,844.619Zm-13.515-13.86a8.424,8.424,0,0,1,11.7-.015,9.233,9.233,0,0,1,0,12.15,8.443,8.443,0,0,1-11.7,0A9.213,9.213,0,0,1,227.384,830.759Zm41.67,16.56v-7.8h5.34l5.1,7.8h2.85l-5.34-8.1a6.352,6.352,0,0,0,3.51-2.3,6.43,6.43,0,0,0,1.29-4,6.269,6.269,0,0,0-1.95-4.74,7.085,7.085,0,0,0-5.1-1.86h-8.22v21h2.52Zm-0.06-18.63h5.7a4.7,4.7,0,0,1,3.375,1.155,4.12,4.12,0,0,1,1.215,3.135,4.071,4.071,0,0,1-1.215,3.12,4.739,4.739,0,0,1-3.375,1.14h-5.7v-8.55Zm38.1,18.63v-21h-2.52v21h2.52Zm38.1-.525a10.831,10.831,0,0,0,3.96-2.535V836.1h-9.78v2.37h7.38v4.71a9.979,9.979,0,0,1-6.45,2.07,7.693,7.693,0,0,1-5.88-2.325,9.537,9.537,0,0,1,.015-12.18,7.473,7.473,0,0,1,5.715-2.355,9.218,9.218,0,0,1,3.585.72,8.194,8.194,0,0,1,2.895,1.98l1.62-1.71a10.756,10.756,0,0,0-8.1-3.42,9.961,9.961,0,0,0-7.56,3.06,11.989,11.989,0,0,0,0,15.66,10.289,10.289,0,0,0,7.74,3A13.648,13.648,0,0,0,345.193,846.794Zm29.22,0.525v-21h-2.52v21h2.52Zm26.459,0v-16.56l12.361,16.56h2.28v-21h-2.49v16.59l-12.39-16.59h-2.251v21h2.49Zm38.85,0,2.01-4.95h10.65l1.95,4.95h2.64l-8.43-21h-2.97l-8.46,21h2.61Zm7.35-18.36,4.41,11.1H442.6Zm44.16,18.36v-2.4h-10.14v-18.6h-2.52v21h12.66Zm49.83,0v-9h9.21v-2.37h-9.21v-7.23h9.9v-2.4h-12.42v21h2.52Zm30.629,0,2.011-4.95h10.649l1.951,4.95h2.639l-8.43-21h-2.97l-8.46,21h2.61Zm7.35-18.36,4.41,11.1h-8.88Zm48.6,14.01-1.83-1.5a8.774,8.774,0,0,1-7.29,3.78,7.274,7.274,0,0,1-5.64-2.37,9.607,9.607,0,0,1-.015-12.12,7.158,7.158,0,0,1,5.565-2.37,8.38,8.38,0,0,1,3.9.945,8.069,8.069,0,0,1,3,2.655l1.83-1.56a10.386,10.386,0,0,0-8.73-4.47,9.65,9.65,0,0,0-7.4,3.075,12.006,12.006,0,0,0,.015,15.585,9.792,9.792,0,0,0,7.47,3.06,10.724,10.724,0,0,0,9.12-4.71h0Zm28.53,4.35v-18.6h6.78v-2.4h-16.08v2.4h6.78v18.6h2.52Zm43.875-2.7a11.6,11.6,0,0,0,0-15.6A11.169,11.169,0,0,0,684.7,829a11.679,11.679,0,0,0,0,15.63A11.169,11.169,0,0,0,700.046,844.619Zm-13.515-13.86a8.424,8.424,0,0,1,11.7-.015,9.233,9.233,0,0,1,0,12.15,8.443,8.443,0,0,1-11.7,0A9.213,9.213,0,0,1,686.531,830.759Zm41.67,16.56v-7.8h5.34l5.1,7.8h2.85l-5.34-8.1a6.345,6.345,0,0,0,3.51-2.3,6.424,6.424,0,0,0,1.29-4,6.266,6.266,0,0,0-1.95-4.74,7.083,7.083,0,0,0-5.1-1.86h-8.22v21h2.52Zm-0.06-18.63h5.7a4.7,4.7,0,0,1,3.375,1.155,4.12,4.12,0,0,1,1.215,3.135,4.071,4.071,0,0,1-1.215,3.12,4.739,4.739,0,0,1-3.375,1.14h-5.7v-8.55Zm42.39,18.63v-8.07l7.95-12.93H775.6l-6.33,10.29-6.33-10.29h-2.91l7.98,12.93v8.07h2.52Zm-584.438-45.98,23.4-60.221h-7.657l-11.27,29.508-8.689,22.282L173.1,770.626l-11.356-29.508H154l23.572,60.221h8.517Zm28.305,0,5.764-14.2H250.7l5.592,14.2h7.57l-24.174-60.221h-8.517l-24.261,60.221H214.4Zm21.077-52.651,12.647,31.832H222.657Zm45.939,52.651V778.971h15.314l14.625,22.368h8.173l-15.313-23.228a18.2,18.2,0,0,0,10.065-6.582,18.421,18.421,0,0,0,3.7-11.485,17.966,17.966,0,0,0-5.592-13.592q-5.592-5.334-14.625-5.334H274.188v60.221h7.226Zm-0.172-53.425h16.346q6.195,0,9.679,3.312a11.819,11.819,0,0,1,3.484,8.99,11.678,11.678,0,0,1-3.484,8.948q-3.484,3.27-9.679,3.269H281.242V747.914Zm89.989,51.92a31.05,31.05,0,0,0,11.356-7.27v-23.4H354.541v6.8h21.164v13.507q-7.4,5.935-18.5,5.936-10.581,0-16.862-6.667t-6.28-17.508q0-10.666,6.323-17.421t16.389-6.753a26.432,26.432,0,0,1,10.281,2.065,23.5,23.5,0,0,1,8.3,5.678l4.646-4.9a30.846,30.846,0,0,0-23.229-9.808q-13.335,0-21.679,8.775t-8.345,22.368q0,13.938,8.345,22.54t22.195,8.6A39.091,39.091,0,0,0,371.231,799.834Zm73.6-6.238q8.646-8.775,8.646-22.368t-8.646-22.368q-8.646-8.775-21.98-8.775-13.422,0-22.024,8.732t-8.6,22.411q0,13.68,8.6,22.411t22.024,8.732Q436.183,802.371,444.829,793.6ZM406.073,753.85q6.537-6.795,16.776-6.8t16.775,6.753q6.537,6.754,6.539,17.421t-6.539,17.422q-6.539,6.755-16.775,6.753t-16.776-6.753q-6.54-6.753-6.539-17.422Q399.534,760.647,406.073,753.85Zm82.675,47.489,23.4-60.221h-7.657l-11.27,29.508-8.689,22.282-8.775-22.282L464.4,741.118h-7.743l23.573,60.221h8.517Zm73.3,0q13.85,0,22.067-8.173t8.216-21.938q0-13.762-8.216-21.937t-22.067-8.173H541.4v60.221h20.647ZM548.624,748h12.991q11.012,0,17.206,6.151t6.194,17.077q0,10.928-6.194,17.077t-17.206,6.152H548.624V748Zm95.235,53.339v-6.8H612.8V773.981h27.7v-6.538H612.8V747.828H642.74v-6.71H605.575v60.221h38.284Zm45.382-4a14.164,14.164,0,0,0,6.151-11.83,13.969,13.969,0,0,0-4.732-10.71q-4.732-4.344-14.883-7.356-8.691-2.665-12.088-5.291a7.85,7.85,0,0,1-3.4-6.409,6.989,6.989,0,0,1,3.4-6.065q3.4-2.279,9.077-2.28a23.546,23.546,0,0,1,17.034,6.968l4.043-5.592a30.043,30.043,0,0,0-20.9-8.259q-8.862,0-14.367,4.3A13.541,13.541,0,0,0,653.065,756a13.694,13.694,0,0,0,4.473,10.453q4.473,4.173,14.367,7.1,8.6,2.5,12.346,5.334t3.742,6.8a7.8,7.8,0,0,1-3.828,6.882q-3.83,2.5-10.539,2.5A28.4,28.4,0,0,1,654.785,788L651,793.6a32.619,32.619,0,0,0,22.454,8.345Q683.089,801.941,689.241,797.339Zm25.335,4V741.118h-7.227v60.221h7.227Zm57.639-1.505a31.05,31.05,0,0,0,11.356-7.27v-23.4H755.525v6.8h21.164v13.507q-7.4,5.935-18.5,5.936-10.581,0-16.862-6.667t-6.28-17.508q0-10.666,6.323-17.421t16.389-6.753a26.432,26.432,0,0,1,10.281,2.065,23.5,23.5,0,0,1,8.3,5.678l4.645-4.9a30.844,30.844,0,0,0-23.228-9.808q-13.335,0-21.679,8.775t-8.345,22.368q0,13.938,8.345,22.54t22.2,8.6A39.091,39.091,0,0,0,772.215,799.834Zm32.089,1.505V753.85l35.444,47.489h6.538V741.118h-7.14v47.575l-35.531-47.575h-6.452v60.221H804.3Zm-287.35-60.71a8.205,8.205,0,0,0-3.333,3.291,8.91,8.91,0,0,0-.018,8.89,8.318,8.318,0,0,0,3.3,3.3,8.945,8.945,0,0,0,8.86,0,8.278,8.278,0,0,0,3.292-3.3,8.942,8.942,0,0,0-.018-8.89,8.167,8.167,0,0,0-3.327-3.291A8.9,8.9,0,0,0,516.954,740.629Zm8.023,1.286a6.852,6.852,0,0,1,2.778,2.749,7.439,7.439,0,0,1,.018,7.409,6.95,6.95,0,0,1-2.749,2.749,7.415,7.415,0,0,1-7.386,0,6.988,6.988,0,0,1-2.754-2.749,7.4,7.4,0,0,1,.017-7.409,6.9,6.9,0,0,1,2.779-2.749A7.4,7.4,0,0,1,524.977,741.915Zm-6,11.391v-4.071h0.908a1.989,1.989,0,0,1,1.239.331,7.719,7.719,0,0,1,1.616,2.229l0.85,1.511h1.887L524.3,751.43a10.974,10.974,0,0,0-1.415-1.9,2.625,2.625,0,0,0-.815-0.507,2.961,2.961,0,0,0,1.988-.873,2.551,2.551,0,0,0,.75-1.829,2.46,2.46,0,0,0-.449-1.4,2.37,2.37,0,0,0-1.2-.926,8.055,8.055,0,0,0-2.442-.265h-3.292v9.58h1.546Zm0-8.283h1.757a4.863,4.863,0,0,1,1.552.165,1.42,1.42,0,0,1,.655.5,1.375,1.375,0,0,1-.254,1.823,3.027,3.027,0,0,1-1.835.4h-1.875v-2.891Z" transform="translate(-154 -158.531)"/>
</svg>
